<?xml version="1.0" standalone="no"?>
<!DOCTYPE svg PUBLIC "-//W3C//DTD SVG 20010904//EN"
 "http://www.w3.org/TR/2001/REC-SVG-20010904/DTD/svg10.dtd">
<svg version="1.0" xmlns="http://www.w3.org/2000/svg"
 width="822.000000pt" height="154.000000pt" viewBox="0 0 822.000000 154.000000"
 preserveAspectRatio="xMidYMid meet">

<g transform="translate(0.000000,154.000000) scale(0.100000,-0.100000)"
fill="#000000" stroke="none">
<path d="M0 770 l0 -770 4110 0 4110 0 0 770 0 770 -4110 0 -4110 0 0 -770z
m720 292 c0 -4 -65 -72 -145 -152 l-145 -145 82 -82 83 -83 -40 0 c-37 0 -47
7 -132 92 l-93 92 -70 4 -70 4 0 134 c0 74 3 134 8 134 4 0 35 -12 70 -26 l62
-27 0 -71 0 -71 102 103 103 102 92 0 c51 0 93 -3 93 -8z m230 -147 c0 -138
-1 -145 -20 -145 -18 0 -20 7 -20 84 l0 85 -47 3 -48 3 -3 44 c-5 67 -1 71 73
71 l65 0 0 -145z m791 134 c92 -20 159 -101 159 -193 0 -60 -19 -102 -63 -145
l-35 -33 -27 41 -28 41 -108 0 c-90 0 -109 3 -109 15 0 12 17 15 95 15 107 0
135 14 135 70 0 48 -32 61 -136 58 l-89 -3 -3 -32 c-2 -25 -8 -33 -23 -33 -18
0 -19 8 -19 105 l0 105 100 0 c54 0 122 -5 151 -11z m1319 4 c0 -4 -28 -36
-62 -70 l-62 -63 -103 0 c-119 0 -150 -9 -159 -46 -6 -22 -2 -32 18 -49 22
-19 39 -22 134 -24 95 -2 114 -5 151 -26 45 -27 79 -74 89 -124 9 -43 -22 -44
-31 -1 -8 37 -48 86 -86 105 -19 10 -60 15 -131 15 -120 0 -164 18 -175 70 -5
28 -8 30 -54 30 -26 0 -50 3 -52 8 -9 14 22 84 50 114 33 34 56 49 98 59 40 9
375 11 375 2z m1013 -236 c59 -127 107 -235 107 -240 0 -4 -59 -7 -131 -7
-100 0 -130 3 -127 13 3 6 25 14 50 17 l45 5 -25 58 c-27 63 -37 70 -46 32 -6
-24 -9 -25 -86 -25 l-79 0 45 98 c25 53 65 139 87 190 23 50 44 92 48 92 3 0
53 -105 112 -233z m2451 203 l66 -29 0 -201 0 -200 55 0 c54 0 55 0 55 -30 l0
-30 -125 0 -125 0 0 260 c0 143 2 260 4 260 2 0 34 -13 70 -30z m806 -215
l108 -235 -135 0 c-103 0 -134 3 -131 13 3 6 25 13 51 15 26 2 47 6 47 10 -1
4 -14 32 -29 62 l-29 55 -13 -27 c-12 -27 -15 -28 -86 -28 -40 0 -73 4 -73 8
0 8 138 310 161 353 6 11 13 18 16 15 3 -3 54 -111 113 -241z m-4880 155 l0
-69 -157 -3 -158 -3 -3 -42 -3 -43 160 0 c89 0 161 -2 161 -5 0 -3 -12 -34
-26 -70 l-26 -65 -104 0 -104 0 0 30 0 30 -65 0 -65 0 0 40 c0 38 -2 40 -30
40 l-30 0 0 115 0 115 225 0 225 0 0 -70z m1162 0 l-4 -70 -154 0 -154 0 0
-45 0 -45 156 0 156 0 -6 -24 c-3 -13 -15 -45 -26 -70 l-19 -46 -106 0 -105 0
0 30 c0 29 -1 29 -62 32 l-63 3 -3 38 c-3 34 -6 37 -33 37 l-29 0 0 115 0 115
228 0 227 0 -3 -70z m768 -45 l0 -115 30 0 c29 0 30 -2 30 -45 l0 -45 113 0
112 0 80 -117 c44 -64 88 -130 98 -145 l19 -28 -84 0 -83 0 -68 105 -67 105
-60 0 -60 0 0 -77 0 -78 -58 -24 c-31 -13 -63 -25 -69 -28 -10 -4 -13 60 -13
301 l0 306 40 0 40 0 0 -115z m320 93 c26 -14 57 -41 75 -66 26 -38 30 -52 30
-112 0 -60 -4 -74 -30 -111 -16 -23 -35 -44 -42 -46 -7 -3 -22 12 -35 31 l-23
36 -106 0 c-87 0 -106 3 -106 15 0 12 17 15 88 15 79 0 89 2 103 22 21 29 20
57 -1 80 -13 15 -32 18 -115 18 l-98 0 0 -36 c0 -28 -3 -35 -17 -32 -16 3 -18
17 -21 106 l-3 102 129 0 c113 0 133 -3 172 -22z m641 -6 c24 -12 55 -31 69
-42 l25 -19 -44 -45 c-26 -27 -50 -43 -60 -40 -9 3 -7 0 4 -6 11 -6 25 -21 30
-33 12 -26 8 -70 -6 -61 -6 3 -7 -5 -3 -20 4 -17 0 -35 -10 -51 -21 -32 -36
-32 -36 0 0 21 -5 25 -28 25 -15 0 -34 6 -41 13 -10 10 -12 8 -9 -8 2 -13 -5
-23 -19 -30 -13 -5 -23 -13 -23 -18 0 -4 -13 -21 -30 -37 l-30 -29 -16 25
c-21 31 -46 16 -27 -15 10 -15 7 -22 -17 -40 -16 -11 -31 -21 -34 -21 -14 0
-58 95 -64 137 -6 43 -10 48 -36 51 -27 3 -28 5 -22 45 16 96 93 189 190 227
67 27 174 23 237 -8z m311 -89 c3 -114 4 -118 26 -121 17 -3 22 -10 22 -33 l0
-29 91 0 90 0 -3 -37 c-3 -43 7 -40 -138 -42 l-90 -1 0 -115 0 -115 -65 0 -65
0 0 305 0 305 65 0 64 0 3 -117z m388 -188 c0 -168 -2 -305 -4 -305 -2 0 -33
14 -70 30 l-66 30 0 135 0 134 -87 3 c-74 3 -88 6 -91 21 -3 15 6 17 87 17
l91 0 0 120 0 120 70 0 70 0 0 -305z m1590 200 l0 -106 123 3 122 3 0 30 0 30
-90 0 c-86 0 -90 -1 -93 -23 -2 -15 -9 -22 -20 -20 -14 3 -17 19 -20 96 l-3
92 117 0 c97 0 125 -3 158 -20 75 -36 114 -131 87 -213 -11 -31 -9 -39 13 -72
88 -130 -5 -305 -164 -305 l-50 0 0 45 0 45 -45 0 c-37 0 -45 3 -45 19 0 17 9
19 79 22 60 3 84 9 100 23 27 24 27 60 1 86 -18 18 -31 20 -113 18 l-92 -3 0
-95 0 -95 48 -3 c45 -3 47 -5 47 -33 l0 -29 -115 0 -115 0 0 305 0 305 35 0
35 0 0 -105z m-6180 -5 c0 -92 1 -100 19 -100 17 0 20 -8 23 -47 l3 -48 110
-3 110 -3 70 -111 c39 -61 81 -128 94 -149 l23 -39 -81 0 -81 0 -65 100 -65
101 -58 -3 -57 -3 -3 -71 -3 -72 -52 -22 c-29 -12 -58 -24 -64 -27 -10 -4 -13
59 -13 296 l0 301 45 0 45 0 0 -100z m-572 -102 c2 -69 6 -88 17 -88 13 0 15
-26 15 -155 0 -85 -2 -155 -4 -155 -4 0 -120 51 -124 55 -2 2 -4 329 -2 423 0
9 14 12 48 10 l47 -3 3 -87z m1750 -1 c19 -53 55 -67 172 -67 143 0 192 -26
209 -113 5 -25 12 -33 34 -35 33 -4 34 -21 6 -80 -15 -29 -37 -54 -67 -73
l-46 -29 -178 0 -178 0 0 65 0 65 148 0 c168 0 195 8 200 56 5 50 -16 58 -153
64 -114 5 -124 7 -159 33 -46 36 -65 65 -73 111 l-6 36 40 0 c35 0 40 -3 51
-33z m-590 -79 l3 -37 62 -3 c48 -2 63 -7 65 -19 2 -10 -5 -19 -18 -22 -16 -4
-20 -13 -20 -51 l0 -46 160 0 160 0 0 -70 0 -70 -225 0 -225 0 0 181 c0 166 1
180 18 177 12 -2 18 -14 20 -40z m1162 2 l0 -40 65 0 c58 0 65 -2 65 -20 0
-11 -7 -20 -15 -20 -11 0 -15 -12 -15 -50 l0 -50 154 0 c176 0 165 6 158 -92
l-4 -48 -224 0 -224 0 0 180 c0 173 1 180 20 180 17 0 20 -7 20 -40z m-2800
-85 c84 -84 99 -95 130 -95 31 0 45 -10 105 -70 l69 -70 -94 0 -95 0 -102 102
c-78 78 -103 98 -104 83 -1 -11 -2 -58 -3 -105 l-1 -85 -67 -3 -68 -3 0 171 0
170 68 0 67 0 95 -95z m4550 13 c13 -48 51 -118 75 -138 13 -11 22 -8 56 20
36 29 43 31 69 20 39 -16 108 -11 148 12 18 10 35 18 37 18 2 0 25 -20 52 -44
56 -52 54 -59 -40 -106 -110 -55 -244 -37 -335 45 -52 47 -91 116 -99 176 -5
31 -2 39 10 39 11 0 20 -15 27 -42z m-1043 -55 c-8 -16 -18 -38 -21 -50 l-7
-23 160 0 160 0 16 -30 c8 -16 15 -31 15 -34 0 -5 -109 -56 -121 -56 -4 0 -11
9 -14 20 -6 19 -15 20 -135 20 -119 0 -128 -1 -133 -20 -5 -18 -14 -20 -82
-20 -44 0 -75 4 -73 9 2 6 23 55 48 110 l45 101 78 0 78 0 -14 -27z m3263 22
c0 -3 -9 -23 -20 -45 -11 -22 -20 -42 -20 -45 0 -3 74 -5 164 -5 147 0 164 -2
169 -17 2 -10 8 -26 12 -35 6 -14 -4 -22 -50 -43 -69 -30 -72 -30 -80 -5 -6
19 -15 20 -130 20 -114 0 -125 -2 -135 -20 -9 -17 -21 -20 -85 -20 -86 0 -84
-14 -16 133 l40 87 76 0 c41 0 75 -2 75 -5z m-270 -150 l0 -65 -205 0 -205 0
0 35 0 35 125 0 125 0 0 30 0 30 80 0 80 0 0 -65z"/>
<path d="M5254 877 c10 -7 16 -19 14 -26 -2 -7 3 -15 10 -16 7 -2 8 -1 2 2 -7
3 -5 12 6 24 9 10 15 20 13 20 -2 1 -17 3 -33 5 -25 3 -26 1 -12 -9z"/>
<path d="M5300 840 c0 -5 5 -10 11 -10 5 0 7 5 4 10 -3 6 -8 10 -11 10 -2 0
-4 -4 -4 -10z"/>
<path d="M5250 816 c0 -8 -3 -22 -6 -30 -5 -12 -2 -15 10 -10 9 4 14 9 12 12
-3 3 -1 11 4 17 8 9 6 14 -5 19 -9 3 -15 0 -15 -8z"/>
<path d="M5280 790 c0 -17 59 -22 75 -7 13 14 10 15 -30 15 -25 0 -45 -3 -45
-8z"/>
</g>
</svg>
