<svg id="Layer_1" data-name="Layer 1" xmlns="http://www.w3.org/2000/svg" viewBox="0 0 1080 1080"><defs><style>.cls-1{fill:#333;}.cls-2,.cls-5{fill:#fff;}.cls-3,.cls-4{fill:#f7931e;}.cls-4{font-size:76.64px;font-family:FranklinGothic-Heavy, Franklin Gothic Heavy;font-weight:800;}.cls-5{letter-spacing:-0.01em;}</style></defs><rect class="cls-1" x="0.5" y="0.5" width="1079" height="1079"/><path d="M1079,1V1079H1V1H1079m1-1H0V1080H1080V0Z"/><path class="cls-2" d="M100.09,502.42c-7.56-3.5-10.31,1.16-12.84,7.08-3.49,8.15-7.52,16.07-11.27,24.11-1.26,2.69-2.55,5.09-.92,8.52,1.84,3.87-.36,7.13-4.28,8.53-3.3,1.18-6.09-.32-7.65-3.29-2-3.84-.74-6.94,2.94-9.09.23-.14.56-.12.79-.26,6-3.76,18-41,15.33-47.49-3.64-8.93-1.37-17.9,6.06-24a18.92,18.92,0,0,1,23.85.1c3.87,3.18,7.43,3.89,12,3.23q19.77-2.81,39.61-5.13c3.09-.36,4.66-1.93,6.51-4.21,2.35-2.88,5.82-3.15,8.92-.67s3.84,5.4,1.49,8.74-5.77,4.23-8.66,1.91c-3.24-2.59-6-1.69-9.23-.9-12.11,2.9-24.27,5.6-36.4,8.43-6.62,1.54-9.89,10.65-5.34,15.82,8.43,9.58,17.36,18.74,25.83,28.29,2.5,2.82,4.55,1.82,7.24.81,16.09-6,30.58-.19,37.85,15.62,1.6,3.49,3,4.36,6.71,4,13.54-1.25,27.11-2.14,40.67-3,4.06-.26,6.87-1,9.07-5.42,3.48-7.07,11.77-8.36,17.73-3.91a12.35,12.35,0,0,1,1.53,18.34,11.8,11.8,0,0,1-18.18-.84c-2.59-3.41-4.64-4.06-8.73-3.17-13.53,2.94-27.18,5.33-40.8,7.78-3.77.68-6.21,1.89-7.62,6.07-3.89,11.62-12.47,18.25-24.59,19.33-4.22.37-5.73,2.28-6.89,5.6-3.48,9.92-6.9,19.86-10.53,29.73-2.62,7.12-5.11,13.48-1.69,21.79,3.93,9.52-3.86,19.89-14,21.48-9.16,1.45-18.53-5.56-19.23-15.2a15.64,15.64,0,0,0-5.15-10.75c-4.71-4.71-9-9.85-13.61-14.65-2.92-3-5.06-6.86-10.62-6.56-3.42.18-5.88-3.09-5.36-7.07.44-3.34,2.26-5.74,6-5.75s6.12,1.69,7.23,5.51c3.6,12.39,15.56,17.15,23.67,25.41,1,1.07,15.54-8.12,16.28-10.18,4.7-13,9.18-26.12,14.11-39,1.34-3.51.61-5.38-2-7.82-8.74-8.19-11.06-18.44-7.73-29.71,1.22-4.15.24-6.76-2.5-9.61-7.13-7.4-14.19-14.87-21-22.53C110.7,504,107.11,499.23,100.09,502.42Z"/><path class="cls-3" d="M130.49,545.26c-1,10.45.49,18,6,24.72,3.56,4.3,4.08,9.22,1.73,14.76-3.79,8.91-6.63,18.21-10.29,27.18-2.44,6-6.52,6.54-10.71,1.57Q103.35,597,89.72,580.29c-5.33-6.52-6.54-13.77-3.57-21.82,4.68-12.71,8.77-25.65,13.78-38.23,3.38-8.5,6.84-8.94,13.46-2.8,2.63,2.44,4.89,5.28,7.57,7.67C127.64,531.09,133.23,537.43,130.49,545.26Z"/><path class="cls-3" d="M230.59,553.47c4.92-.2,6.49,2.21,5,6.29-6.1,16.92-11.86,34-18.8,50.58-3.51,8.39-12.4,10.57-20.67,12.16-12.22,2.35-24.55,4.17-36.77,6.57-5.68,1.12-6.69-1.7-5.3-5.87,3.86-11.54,8.13-22.93,12.28-34.37,1.2-3.32,4.27-4.46,7.17-5.09,10.83-2.37,18.32-9.06,23.53-18.3,2.76-4.9,6.55-7.21,11.75-8.1C216.16,556.09,223.51,554.73,230.59,553.47Z"/><path class="cls-3" d="M208.31,535.22c-6.29,1-10.41-1.79-14.14-6.66-9.21-12-21.5-17-36.54-14.14-4.85.94-8.65-.09-11.91-3.8-3.66-4.16-7.59-8.09-11.19-12.3-3.25-3.8-3.22-7.54,2.3-8.61,15.21-2.94,30.46-5.69,45.79-7.92,5.53-.81,10.19,2.7,13.7,6.74,10.53,12.09,20.79,24.43,31.15,36.66,4.28,5,3.35,7.71-3.47,8.2C218.75,533.77,213.54,534.59,208.31,535.22Z"/><path class="cls-2" d="M228.42,642.11c-10-6.35-21.44-1.05-32.73,0-4.75.43-10.36-.46-13.84,5.29-1.91,3.16-6,2.35-8.88,0a5.53,5.53,0,0,1-1.62-7.44c1.8-3.44,4.81-4.87,8.37-3.41,12.4,5.07,22.81-2.88,34.1-5,2.74-.51,1.68-3.06,2-4.82,1.49-8.15,6.21-13.13,14.58-13.21,3.84,0,5.37-1.62,6.75-4.58q4.41-9.42,9.09-18.7c1.27-2.54,2.08-4.8.93-7.8-1.55-4,.39-7.23,4.23-8.67,3.28-1.23,6.07.4,7.62,3.38,2,3.91.6,7.68-3.08,9s-4.39,3.79-5.41,6.57c-2.2,6-4.22,12-6.51,18a16.82,16.82,0,0,0-.32,12.68C247.06,632.92,239.54,642.38,228.42,642.11Z"/><path class="cls-2" d="M215.32,488.61c.63-6.09,4.09-9.52,10.23-9.31s9.72,4.13,9.52,10.15-4.26,9.73-10.24,9.49S215.41,495,215.32,488.61Z"/><path class="cls-2" d="M237.9,513.79c-4.22-.09-6.8-2-7-5.82-.22-4.11,2.13-6.78,6.38-6.89,3.73-.09,6.36,1.82,6.62,5.77C244.18,511.19,241.61,513.27,237.9,513.79Z"/><path class="cls-2" d="M207.46,462.84c-.24,3.19-2.26,5.49-6.22,5.43s-6.14-2.32-6.1-6.28,2.62-6.37,6.25-6.27S207.59,458,207.46,462.84Z"/><path class="cls-2" d="M59.07,569.07c3,.53,5.06,2,4.91,5.39-.16,3.65-2.42,5.68-5.87,5.29-3-.33-4.72-2.52-4.53-5.82S55.91,569.27,59.07,569.07Z"/><text class="cls-4" transform="translate(294.05 594.71) scale(1.11 1)">KI<tspan class="cls-2" x="74.84" y="0" xml:space="preserve"> RESEA</tspan><tspan class="cls-5" x="331.59" y="0">R</tspan><tspan class="cls-2" x="383.94" y="0">CH LAB</tspan></text></svg>