<?xml version="1.0" standalone="no"?>
<!DOCTYPE svg PUBLIC "-//W3C//DTD SVG 20010904//EN"
 "http://www.w3.org/TR/2001/REC-SVG-20010904/DTD/svg10.dtd">
<svg version="1.0" xmlns="http://www.w3.org/2000/svg"
 width="1408.000000pt" height="302.000000pt" viewBox="0 0 1408.000000 302.000000"
 preserveAspectRatio="xMidYMid meet">

<g transform="translate(0.000000,302.000000) scale(0.100000,-0.100000)"
fill="#000000" stroke="none">
<path d="M0 1510 l0 -1510 7040 0 7040 0 0 1510 0 1510 -7040 0 -7040 0 0
-1510z m2541 1300 c20 0 49 -42 49 -71 0 -32 -15 -69 -34 -81 -19 -13 -81 -9
-103 7 -45 32 -33 117 21 141 17 7 37 11 44 9 8 -3 18 -5 23 -5z m-320 -59
c46 -46 34 -109 -26 -138 -33 -16 -36 -16 -85 7 l-50 24 -123 -28 c-408 -93
-461 -108 -489 -138 -31 -33 -43 -76 -34 -122 6 -30 139 -186 324 -378 70 -74
87 -80 158 -54 65 22 158 29 217 16 113 -27 190 -88 257 -205 45 -78 46 -79
163 -72 355 22 532 38 553 52 13 8 36 34 53 58 40 59 74 79 131 79 148 0 222
-163 123 -273 -69 -77 -156 -74 -244 8 -48 45 -50 46 -102 40 -112 -13 -607
-115 -623 -128 -9 -7 -31 -46 -49 -85 -58 -127 -134 -191 -260 -219 -39 -8
-80 -18 -92 -20 -31 -7 -42 -31 -139 -303 -98 -276 -110 -328 -94 -392 34
-132 34 -136 16 -185 -38 -97 -118 -155 -220 -158 -102 -2 -194 69 -217 168
-25 109 -41 139 -118 220 -42 44 -103 110 -137 147 -64 70 -84 83 -146 93 -47
7 -68 36 -68 91 0 55 37 89 89 80 45 -7 73 -35 94 -93 22 -62 76 -129 152
-189 33 -26 82 -65 108 -87 35 -29 54 -37 71 -33 26 6 165 95 183 117 6 8 27
59 46 114 19 55 63 176 96 268 34 93 61 179 61 192 0 16 -19 46 -51 81 -91
100 -118 200 -92 337 8 44 11 92 8 109 -4 18 -41 65 -94 121 -47 51 -129 138
-180 195 -52 57 -107 110 -122 117 -24 13 -61 16 -183 16 -17 0 -38 -9 -48
-19 -23 -22 -216 -430 -219 -463 -2 -13 1 -41 5 -62 11 -50 -4 -83 -48 -104
-29 -14 -39 -14 -66 -3 -33 14 -60 55 -60 91 0 14 18 39 45 64 56 53 110 160
163 325 60 186 70 260 48 352 -11 49 -15 88 -10 114 16 90 83 177 163 212 20
8 65 15 101 15 67 1 105 -13 166 -59 58 -43 87 -43 399 -3 160 20 301 41 315
47 14 5 38 24 54 41 40 42 86 42 127 2z m674 -267 c84 -39 85 -188 2 -231 -46
-23 -131 -13 -163 19 -64 63 -43 192 36 221 30 11 93 7 125 -9z m-524 -48 c61
-41 519 -576 519 -607 0 -32 -42 -46 -193 -63 -142 -16 -149 -16 -190 2 -26
12 -66 46 -107 92 -77 87 -155 140 -242 165 -52 15 -84 16 -185 11 -146 -8
-150 -7 -244 91 -147 153 -165 186 -116 217 12 8 123 33 247 55 441 80 445 80
511 37z m669 -236 c28 -15 45 -75 30 -109 -18 -44 -85 -65 -130 -41 -28 15
-45 75 -30 109 18 45 85 65 130 41z m-1734 -189 c66 -48 224 -219 244 -264 17
-37 19 -57 13 -157 -7 -139 6 -194 68 -290 67 -103 66 -119 -26 -367 -43 -114
-87 -220 -97 -235 -24 -35 -67 -37 -102 -5 -51 45 -398 474 -424 522 -21 40
-26 64 -26 120 -1 62 8 94 72 272 147 409 158 433 212 433 15 0 45 -13 66 -29z
m5844 -356 c48 -13 53 -12 68 6 9 10 24 19 34 19 16 0 18 -12 18 -121 0 -107
-2 -120 -17 -117 -9 2 -27 23 -40 48 -51 96 -114 140 -202 140 -67 0 -111 -35
-111 -89 0 -52 21 -69 175 -141 181 -86 226 -133 226 -236 0 -171 -187 -260
-421 -199 -64 17 -65 16 -79 -4 -7 -12 -22 -21 -33 -21 -17 0 -18 8 -16 133 3
121 5 132 22 132 13 0 24 -15 38 -53 47 -127 174 -193 283 -148 34 15 65 59
65 94 0 39 -44 75 -159 130 -144 68 -195 104 -221 157 -55 114 21 258 151 285
52 10 147 4 219 -15z m1486 -210 c57 -121 110 -233 118 -250 13 -27 15 -12 15
176 1 227 -1 236 -59 248 -21 4 -36 14 -38 24 -3 16 15 17 221 17 123 0 249
-4 278 -10 134 -24 204 -90 197 -186 -6 -69 -37 -109 -110 -144 l-58 -28 111
-142 c61 -78 122 -146 135 -152 13 -6 24 -17 24 -25 0 -10 -27 -13 -124 -13
l-124 0 -118 160 c-65 88 -121 160 -126 160 -4 0 -8 -56 -8 -123 0 -137 6
-152 65 -159 19 -2 31 -9 33 -20 3 -17 -15 -18 -268 -18 -253 0 -271 1 -268
18 2 12 14 18 40 20 50 4 55 25 22 101 l-27 61 -122 0 -123 0 -21 -51 c-26
-60 -25 -103 4 -107 50 -7 65 -13 65 -27 0 -12 -21 -15 -125 -15 -103 0 -125
3 -125 15 0 8 16 22 37 31 40 20 43 24 229 442 92 206 101 222 123 220 21 -3
38 -33 127 -223z m1387 203 l89 -23 18 23 c10 12 28 22 39 22 21 0 22 -3 19
-122 -3 -104 -5 -123 -19 -126 -10 -2 -26 11 -40 35 -56 92 -132 152 -207 166
-52 10 -123 -10 -160 -46 -94 -91 -103 -403 -15 -508 79 -94 239 -91 359 7 52
43 58 45 83 34 l26 -12 -52 -48 c-79 -73 -148 -103 -251 -108 -231 -12 -397
100 -433 294 -30 160 44 313 186 386 101 53 221 61 358 26z m2727 -284 c79
-169 153 -318 163 -331 11 -13 30 -29 43 -33 13 -5 24 -16 24 -25 0 -13 -26
-15 -191 -15 -176 0 -190 1 -187 18 2 12 16 19 43 22 51 6 56 30 21 105 l-25
55 -124 0 -123 0 -23 -65 c-27 -74 -21 -92 32 -97 21 -2 33 -9 35 -20 3 -16
-8 -18 -117 -18 -114 0 -121 1 -121 20 0 13 7 20 18 20 10 0 28 10 40 23 17
18 246 508 293 625 5 14 17 22 31 22 21 0 40 -35 168 -306z m-8592 279 c-2
-10 -17 -20 -38 -24 -54 -11 -60 -28 -60 -166 0 -123 0 -124 20 -110 48 33
260 240 260 253 0 7 -10 16 -22 18 -70 14 -79 18 -75 29 3 9 51 13 171 15 153
2 167 1 164 -15 -2 -11 -20 -20 -53 -28 -27 -6 -61 -17 -75 -25 -30 -16 -164
-127 -203 -168 l-28 -30 172 -191 c94 -106 185 -199 201 -207 16 -8 26 -19 23
-24 -4 -6 -86 -10 -196 -10 -161 0 -189 2 -189 15 0 10 10 15 34 15 71 0 64
18 -60 159 -141 159 -144 159 -144 2 0 -122 10 -146 65 -157 20 -3 35 -12 35
-20 0 -11 -35 -14 -195 -14 -160 0 -195 3 -195 14 0 8 15 17 35 20 63 12 65
20 65 316 0 293 -1 297 -60 309 -21 4 -36 14 -38 24 -3 16 13 17 193 17 180 0
196 -1 193 -17z m890 0 c-2 -12 -16 -20 -42 -24 -66 -11 -66 -12 -66 -309 0
-300 1 -305 71 -316 23 -4 39 -12 39 -20 0 -11 -37 -14 -200 -14 -164 0 -200
3 -200 14 0 8 15 17 35 20 63 12 65 20 65 318 0 255 -1 269 -20 288 -11 11
-33 20 -50 20 -23 0 -30 4 -30 20 0 19 7 20 201 20 185 0 200 -1 197 -17z
m603 7 c134 -24 204 -90 197 -186 -6 -69 -37 -109 -110 -144 l-58 -28 111
-142 c61 -78 122 -146 135 -152 13 -6 24 -17 24 -25 0 -10 -27 -13 -124 -13
l-124 0 -118 160 c-65 88 -121 160 -126 160 -4 0 -8 -56 -8 -123 0 -137 6
-152 65 -159 19 -2 31 -9 33 -20 3 -17 -12 -18 -198 -18 -186 0 -201 1 -198
18 2 11 14 18 33 20 65 8 65 6 65 307 0 299 -1 302 -60 314 -21 4 -36 14 -38
24 -3 16 15 17 221 17 123 0 249 -4 278 -10z m989 -100 c0 -102 -1 -110 -19
-110 -14 0 -24 13 -36 50 -30 90 -96 123 -233 118 l-77 -3 -3 -132 c-3 -149
-6 -144 70 -123 43 12 74 47 88 101 8 29 16 39 31 39 19 0 19 -6 17 -177 -2
-145 -6 -178 -17 -178 -8 0 -20 18 -28 40 -7 22 -18 50 -24 62 -15 27 -67 53
-108 53 l-31 0 0 -135 0 -135 26 -10 c60 -23 178 -4 247 39 24 16 59 52 77 80
51 78 84 68 61 -19 -5 -19 -15 -61 -21 -92 l-11 -58 -340 0 c-319 0 -340 1
-337 18 2 11 14 18 33 20 65 8 65 6 65 312 0 305 2 296 -63 309 -19 4 -33 14
-35 24 -3 16 21 17 332 17 l336 0 0 -110z m1385 0 c0 -95 -2 -105 -18 -105
-13 0 -23 12 -32 37 -34 100 -72 122 -210 123 l-100 0 -3 -132 c-3 -149 -6
-144 70 -123 41 12 72 47 85 100 7 25 16 36 31 38 l22 3 -2 -178 c-3 -159 -5
-178 -20 -181 -12 -2 -19 5 -23 25 -18 83 -68 133 -132 133 l-33 0 0 -135 0
-135 28 -11 c34 -14 151 -4 200 17 44 18 95 64 128 117 15 22 32 37 44 37 24
0 25 8 -2 -117 l-21 -103 -339 0 c-318 0 -339 1 -336 18 2 11 14 18 35 20 61
6 63 17 63 314 0 255 -1 269 -20 288 -11 11 -33 20 -50 20 -23 0 -30 4 -30 20
0 20 5 20 333 18 l332 -3 0 -105z m2643 88 c3 -14 -3 -18 -25 -18 -16 0 -39
-7 -51 -16 -21 -14 -22 -22 -22 -135 l0 -119 131 0 131 0 -4 115 c-3 127 -10
142 -69 154 -20 4 -34 13 -34 21 0 13 32 15 198 18 192 2 197 2 197 -18 0 -14
-7 -20 -24 -20 -13 0 -34 -9 -47 -19 l-24 -19 0 -277 c0 -262 1 -277 19 -291
11 -8 32 -14 48 -14 21 0 28 -5 28 -20 0 -20 -5 -20 -197 -18 -167 3 -198 5
-198 18 0 9 14 17 38 21 21 3 43 11 50 18 8 8 13 59 16 141 l3 130 -131 0
-131 0 0 -127 c0 -71 4 -134 9 -142 5 -8 26 -17 47 -20 26 -4 40 -12 42 -24 3
-16 -12 -17 -198 -17 -186 0 -201 1 -198 18 2 11 15 19 38 22 58 8 61 22 58
323 -3 253 -4 269 -22 283 -11 8 -32 14 -48 14 -21 0 -28 5 -28 20 0 20 5 20
197 18 179 -3 198 -5 201 -20z m1182 2 c0 -15 -7 -20 -27 -20 -50 0 -71 -11
-82 -42 -7 -19 -11 -131 -11 -284 0 -246 1 -255 21 -275 19 -19 29 -21 93 -16
122 9 193 53 242 150 17 32 31 47 44 47 25 0 25 -12 0 -135 -11 -53 -20 -99
-20 -101 0 -2 -151 -4 -336 -4 -314 0 -335 1 -332 18 2 11 14 18 33 20 65 8
65 6 65 309 0 260 -1 274 -20 293 -11 11 -33 20 -50 20 -23 0 -30 4 -30 20 0
19 7 20 205 20 198 0 205 -1 205 -20z m1641 10 c128 -24 185 -81 176 -173 -4
-44 -10 -56 -42 -84 -21 -18 -53 -37 -73 -44 l-35 -11 54 -19 c94 -33 144 -99
137 -179 -5 -52 -27 -87 -75 -120 -72 -50 -103 -54 -365 -58 -245 -3 -248 -3
-248 17 0 16 6 21 28 21 16 0 37 6 48 14 18 14 19 29 19 291 l0 277 -24 19
c-13 10 -34 19 -47 19 -17 0 -24 6 -24 20 0 19 7 20 209 20 114 0 232 -5 262
-10z m-10537 -156 c18 -18 21 -52 6 -86 -5 -13 -45 -122 -89 -243 -43 -121
-98 -267 -121 -325 -82 -206 -95 -213 -598 -301 -255 -45 -274 -45 -280 -2 -3
20 145 449 174 505 16 31 48 50 114 68 109 29 188 89 266 201 61 86 102 125
142 136 49 12 317 61 344 62 15 0 34 -6 42 -15z m-2300 -213 c41 -46 11 -121
-49 -121 -40 0 -66 27 -67 71 -2 59 77 93 116 50z m2621 -82 c31 -59 23 -77
-68 -151 -21 -17 -42 -61 -84 -173 -50 -135 -55 -157 -53 -220 6 -225 7 -209
-24 -249 -52 -69 -143 -93 -222 -60 -52 22 -150 21 -297 -5 -66 -12 -135 -21
-153 -21 -44 0 -92 -24 -125 -63 -22 -27 -30 -30 -64 -24 -84 14 -113 91 -56
148 34 34 39 34 112 13 73 -22 154 -13 282 30 56 18 118 38 137 43 32 8 35 13
41 53 18 122 88 190 195 190 17 0 42 8 55 19 13 10 58 87 99 171 62 128 74
158 71 193 -6 80 -4 98 19 122 40 43 109 35 135 -16z"/>
<path d="M8977 1603 c-4 -3 -7 -69 -7 -146 l0 -139 53 7 c114 15 142 49 135
161 -4 60 -7 70 -36 95 -27 24 -41 29 -85 29 -30 0 -57 -3 -60 -7z"/>
<path d="M8419 1385 c-12 -28 -34 -78 -50 -112 l-28 -63 100 0 c54 0 99 2 99
5 0 2 -22 53 -50 112 l-49 108 -22 -50z"/>
<path d="M12470 1333 c-23 -54 -44 -104 -47 -110 -4 -10 19 -13 95 -13 l101 0
-48 105 c-27 58 -51 108 -53 111 -3 2 -24 -39 -48 -93z"/>
<path d="M5457 1603 c-4 -3 -7 -69 -7 -146 l0 -139 53 7 c114 15 142 49 135
161 -4 60 -7 70 -36 95 -27 24 -41 29 -85 29 -30 0 -57 -3 -60 -7z"/>
<path d="M13328 1609 c-16 -9 -18 -26 -18 -134 0 -123 0 -125 23 -125 44 0 96
21 117 47 23 30 27 109 9 163 -17 47 -88 74 -131 49z"/>
<path d="M13312 1163 l3 -147 31 -9 c48 -14 111 8 135 46 16 26 19 46 17 104
-3 63 -7 76 -32 102 -19 20 -45 34 -78 40 -84 19 -79 29 -76 -136z"/>
</g>
</svg>
